<svg aria-hidden="true" focusable="false" width="24" class="icon icon-pinterest" viewBox="0 0 24 24" xmlns="http://www.w3.org/2000/svg">
      <path fill-rule="evenodd" clip-rule="evenodd" d="M11.765 2.401c3.59-.054 5.837 1.4 6.895 3.95.349.842.722 2.39.442 3.675-.112.512-.144 1.048-.295 1.53-.308.983-.708 1.853-1.238 2.603-.72 1.02-1.81 1.706-3.182 2.052-1.212.305-2.328-.152-2.976-.643-.206-.156-.483-.36-.56-.643h-.029c-.046.515-.244 1.062-.383 1.531-.193.65-.23 1.321-.472 1.929a12.345 12.345 0 0 1-.942 1.868c-.184.302-.692 1.335-1.061 1.347-.04-.078-.057-.108-.06-.245-.118-.19-.035-.508-.087-.766-.082-.4-.145-1.123-.06-1.53v-.643c.096-.442.092-.894.207-1.317.25-.92.39-1.895.648-2.848.249-.915.477-1.916.678-2.847.045-.21-.21-.815-.265-1.041-.174-.713-.042-1.7.176-2.236.275-.674 1.08-1.703 2.122-1.439.838.212 1.371 1.118 1.09 2.266-.295 1.205-.677 2.284-.943 3.49-.068.311.05.641.118.827.248.672 1 1.324 2.004 1.072 1.52-.383 2.193-1.76 2.652-3.246.124-.402.109-.781.206-1.225.204-.935.118-2.331-.177-3.061-.472-1.17-1.353-1.92-2.563-2.328L12.707 4.3c-.56-.128-1.626.064-2.004.183-1.69.535-2.737 1.427-3.388 3.032-.222.546-.344 1.1-.383 1.868l-.03.276c.13.686.144 1.14.413 1.653.132.252.447.451.5.765.032.185-.104.464-.147.613-.065.224-.041.48-.147.673-.192.349-.714.087-.943-.061-1.192-.77-2.175-2.995-1.62-5.144.085-.332.09-.62.206-.919.723-1.844 1.802-2.978 3.359-3.95.583-.364 1.37-.544 2.092-.734l1.149-.154Z" fill="currentColor"/>
    </svg>